<svg width="583" height="116" viewBox="0 0 583 116" fill="none" xmlns="http://www.w3.org/2000/svg">
<path d="M393.767 46.3125C392.488 44.2617 390.768 42.6052 388.61 41.3431C386.531 40.081 384.132 39.45 381.413 39.45C378.055 39.45 375.256 40.3571 373.017 42.1714C370.858 43.9067 369.779 46.2336 369.779 49.1522C369.779 50.572 370.138 51.7946 370.858 52.8201C371.578 53.8455 372.497 54.7526 373.617 55.5414C374.736 56.3302 375.936 56.9612 377.215 57.4345C378.574 57.9078 379.854 58.3022 381.053 58.6177C394.886 62.0884 401.803 68.1621 401.803 76.8388C401.803 79.5207 401.243 81.9265 400.124 84.0563C399.005 86.1071 397.485 87.8425 395.566 89.2623C393.647 90.6822 391.448 91.747 388.969 92.4569C386.491 93.2457 383.852 93.6401 381.053 93.6401C376.495 93.6401 372.377 92.6147 368.699 90.5638C365.101 88.513 362.582 85.5156 361.143 81.5716C360.743 80.1518 361.183 79.2052 362.462 78.7319L364.741 77.6671C366.02 77.1938 366.94 77.5882 367.5 78.8502L367.86 79.4418C368.499 80.7039 369.339 81.8082 370.378 82.7548C371.418 83.7013 372.537 84.4901 373.737 85.1212C375.016 85.7522 376.295 86.2649 377.575 86.6593C378.854 86.9748 380.014 87.1326 381.053 87.1326C382.492 87.1326 384.012 86.9354 385.611 86.541C387.21 86.1466 388.689 85.555 390.049 84.7662C391.488 83.8985 392.648 82.8337 393.527 81.5716C394.487 80.2306 394.966 78.6925 394.966 76.9571C394.966 75.3007 394.487 73.8414 393.527 72.5793C392.648 71.3173 391.488 70.213 390.049 69.2664C388.689 68.3199 387.13 67.5705 385.371 67.0183C383.612 66.3873 381.893 65.8746 380.214 65.4802C377.975 64.928 375.816 64.1787 373.737 63.2321C371.658 62.2856 369.819 61.1418 368.219 59.8009C366.7 58.4599 365.461 56.9218 364.501 55.1864C363.542 53.3722 363.062 51.3608 363.062 49.1522C363.062 44.3405 364.741 40.4754 368.099 37.5569C371.458 34.5595 375.896 33.0608 381.413 33.0608C385.491 33.0608 389.129 33.889 392.328 35.5455C395.526 37.1231 398.165 39.7655 400.244 43.4729C400.564 44.025 400.684 44.5772 400.604 45.1293C400.524 45.6026 400.164 46.0364 399.524 46.4308L397.365 47.7323C396.326 48.4423 395.406 48.4028 394.607 47.614C394.447 47.4563 394.287 47.2985 394.127 47.1407C394.047 46.9041 393.927 46.628 393.767 46.3125Z" fill="#42C7F3"/>
<path d="M420.491 90.2089V36.6104C420.491 35.1905 421.25 34.4806 422.77 34.4806H425.168C426.688 34.4806 427.447 35.1905 427.447 36.6104V90.2089C427.447 91.6287 426.688 92.3386 425.168 92.3386H422.77C421.25 92.3386 420.491 91.6287 420.491 90.2089ZM418.332 17.561C418.332 15.9834 418.851 14.6819 419.891 13.6565C421.01 12.5522 422.33 12 423.849 12C425.448 12 426.768 12.5522 427.807 13.6565C428.927 14.6819 429.486 15.9834 429.486 17.561C429.486 19.0597 428.927 20.3612 427.807 21.4655C426.768 22.491 425.448 23.0037 423.849 23.0037C422.33 23.0037 421.01 22.491 419.891 21.4655C418.851 20.3612 418.332 19.0597 418.332 17.561Z" fill="#42C7F3"/>
<path d="M503.346 36.847V83.7013C503.346 88.9863 502.627 93.6401 501.187 97.663C499.828 101.686 497.869 105.038 495.31 107.72C492.831 110.402 489.833 112.413 486.315 113.754C482.796 115.095 478.878 115.766 474.56 115.766C471.442 115.766 468.643 115.371 466.164 114.583C463.685 113.873 461.287 112.887 458.968 111.625C458.008 111.072 457.528 110.52 457.528 109.968C457.528 109.81 457.648 109.534 457.888 109.14C458.128 108.746 458.408 108.312 458.728 107.838C459.048 107.444 459.328 107.05 459.567 106.655C459.807 106.34 459.967 106.103 460.047 105.945C460.527 105.157 461.127 104.92 461.846 105.235C462.566 105.551 463.406 105.906 464.365 106.3C465.884 107.01 467.484 107.602 469.163 108.075C470.922 108.548 472.601 108.785 474.2 108.785C476.999 108.785 479.718 108.312 482.356 107.365C485.075 106.419 487.434 104.999 489.433 103.106C491.512 101.213 493.151 98.8462 494.351 96.0065C495.63 93.2457 496.27 90.0511 496.27 86.4227V80.5067C494.67 84.7662 491.832 88.0397 487.754 90.3272C483.676 92.6147 479.118 93.7585 474.08 93.7585C470.002 93.7585 466.204 92.9697 462.686 91.3921C459.168 89.8145 456.129 87.6847 453.57 85.0028C451.012 82.2421 448.973 79.0475 447.453 75.419C446.014 71.7117 445.294 67.7677 445.294 63.5871C445.294 59.4065 446.014 55.4625 447.453 51.7552C448.893 48.0479 450.892 44.8138 453.45 42.053C456.089 39.2923 459.168 37.1231 462.686 35.5455C466.204 33.9679 470.002 33.1791 474.08 33.1791C476.719 33.1791 479.238 33.5341 481.637 34.244C484.116 34.875 486.355 35.8216 488.354 37.0836C490.353 38.2668 492.072 39.6867 493.511 41.3431C494.95 42.9996 495.95 44.8533 496.51 46.9041L496.749 36.847C496.909 35.2694 497.709 34.4806 499.148 34.4806H501.187C502.627 34.4806 503.346 35.2694 503.346 36.847ZM496.51 63.5871C496.51 60.353 495.95 57.3162 494.83 54.4765C493.711 51.558 492.152 49.0339 490.153 46.9041C488.154 44.6955 485.755 42.9601 482.956 41.6981C480.237 40.436 477.279 39.805 474.08 39.805C470.882 39.805 467.923 40.436 465.205 41.6981C462.486 42.9601 460.127 44.6955 458.128 46.9041C456.209 49.0339 454.69 51.558 453.57 54.4765C452.531 57.3162 452.011 60.353 452.011 63.5871C452.011 66.8212 452.571 69.858 453.69 72.6977C454.81 75.5373 456.329 78.022 458.248 80.1518C460.247 82.2815 462.566 83.9774 465.205 85.2395C467.923 86.5015 470.882 87.1326 474.08 87.1326C477.279 87.1326 480.237 86.541 482.956 85.3578C485.675 84.0957 488.034 82.3998 490.033 80.2701C492.032 78.1403 493.591 75.6556 494.71 72.816C495.91 69.9763 496.51 66.9 496.51 63.5871Z" fill="#42C7F3"/>
<path d="M532.097 56.9612V90.2089C532.097 90.9188 531.977 91.4709 531.737 91.8653C531.497 92.1809 531.017 92.3386 530.298 92.3386H527.179C526.38 92.3386 525.86 92.1809 525.62 91.8653C525.38 91.4709 525.26 90.9188 525.26 90.2089V36.0188C525.26 34.9933 525.86 34.4806 527.059 34.4806H530.418C531.057 34.4806 531.457 34.6778 531.617 35.0722C531.857 35.3877 531.977 35.7427 531.977 36.1371L532.217 43.4729C534.216 40.5543 536.855 38.1091 540.133 36.1371C543.491 34.1651 547.209 33.1791 551.288 33.1791C554.726 33.1791 557.924 33.8101 560.883 35.0722C563.841 36.3343 566.4 38.1091 568.559 40.3966C570.718 42.6052 572.397 45.2871 573.597 48.4423C574.876 51.5974 575.516 55.0287 575.516 58.736V69.4238C575.516 71.0014 573.841 71.4387 572.561 71.4387H570.043C569.163 71.4387 569.035 71.4387 568.559 71.4387C568.532 70.9349 568.559 70.7163 568.559 69.9275V57.4345C568.559 54.9892 568.079 52.7017 567.12 50.572C566.16 48.4423 564.841 46.5886 563.162 45.011C561.563 43.4334 559.683 42.2108 557.525 41.3431C555.366 40.3966 553.047 39.9233 550.568 39.9233C548.169 39.9233 545.85 40.3571 543.611 41.2248C541.372 42.0925 539.413 43.3151 537.734 44.8927C536.055 46.3914 534.696 48.2056 533.656 50.3354C532.617 52.3862 532.097 54.5948 532.097 56.9612Z" fill="#42C7F3"/>
<path d="M58.9699 33.6724V89.5464C58.9699 90.8621 58.2722 91.5199 56.877 91.5199H53.9223C53.0195 91.5199 52.445 91.3554 52.1988 91.0265C52.0346 90.6976 51.9526 90.122 51.9526 89.2997V78.4456C50.4752 83.0504 47.7258 86.6273 43.7042 89.1764C39.6826 91.7255 34.9633 93 29.5465 93C25.3607 93 21.4622 92.1777 17.851 90.5332C14.2398 88.8886 11.121 86.6684 8.49462 83.8727C5.86826 80.9947 3.77538 77.6645 2.21599 73.882C0.738662 70.0172 0 65.9058 0 61.5478C0 57.1897 0.738662 53.0783 2.21599 49.2135C3.69331 45.3488 5.74515 41.9775 8.3715 39.0995C11.0799 36.2215 14.2398 33.9602 17.851 32.3157C21.4622 30.6711 25.3607 29.8488 29.5465 29.8488C32.2549 29.8488 34.8402 30.2188 37.3024 30.9589C39.7647 31.6167 41.9806 32.6035 43.9504 33.9191C45.9202 35.1525 47.6027 36.6326 48.9979 38.3594C50.3932 40.0862 51.3781 42.0186 51.9526 44.1565L52.1988 33.6724C52.2809 32.8501 52.445 32.2334 52.6912 31.8223C52.9375 31.4111 53.512 31.2056 54.4148 31.2056H57.0001C58.3133 31.2056 58.9699 32.0279 58.9699 33.6724ZM51.9526 61.5478C51.9526 58.1764 51.3781 55.0106 50.229 52.0504C49.1621 49.008 47.6437 46.3767 45.6739 44.1565C43.7042 41.8541 41.324 40.0451 38.5335 38.7294C35.8251 37.4138 32.8294 36.756 29.5465 36.756C26.2635 36.756 23.2268 37.4138 20.4363 38.7294C17.6458 40.0451 15.2246 41.8541 13.1728 44.1565C11.203 46.3767 9.64365 49.008 8.49462 52.0504C7.42766 55.0106 6.89418 58.1764 6.89418 61.5478C6.89418 64.9191 7.4687 68.0849 8.61773 71.0451C9.76676 74.0053 11.3262 76.5955 13.2959 78.8157C15.3478 81.0358 17.7279 82.8037 20.4363 84.1194C23.2268 85.435 26.2635 86.0928 29.5465 86.0928C32.8294 86.0928 35.8251 85.4761 38.5335 84.2427C41.324 82.9271 43.7042 81.1592 45.6739 78.939C47.6437 76.7188 49.1621 74.1287 50.229 71.1684C51.3781 68.2082 51.9526 65.0013 51.9526 61.5478Z" fill="#545D6A"/>
<path d="M135.432 2.46684V88.9297C135.432 89.752 135.268 90.4098 134.939 90.9032C134.693 91.3143 134.118 91.5199 133.216 91.5199H130.63C129.071 91.5199 128.291 90.6565 128.291 88.9297V81.2825C127.799 82.187 127.019 83.2971 125.952 84.6127C124.885 85.9284 123.449 87.2029 121.643 88.4363C119.92 89.6698 117.745 90.6976 115.118 91.5199C112.574 92.4244 109.496 92.8767 105.885 92.8767C101.864 92.8767 98.0882 92.0544 94.559 90.4098C91.0299 88.7653 87.9521 86.5451 85.3257 83.7493C82.7815 80.8714 80.7296 77.5411 79.1702 73.7586C77.6929 69.8939 76.9542 65.7825 76.9542 61.4244C76.9542 57.0663 77.6929 52.9549 79.1702 49.0902C80.7296 45.2255 82.7815 41.8952 85.3257 39.0995C87.9521 36.2215 91.0299 33.9602 94.559 32.3157C98.0882 30.6711 101.864 29.8488 105.885 29.8488C111.548 29.8488 116.226 31.2467 119.92 34.0424C123.613 36.8382 126.404 40.2096 128.291 44.1565V2.46684C128.291 0.82228 129.071 0 130.63 0H133.216C134.118 0 134.693 0.246684 134.939 0.740051C135.268 1.1512 135.432 1.72679 135.432 2.46684ZM128.784 61.4244C128.784 58.0531 128.168 54.8873 126.937 51.9271C125.788 48.8846 124.188 46.2533 122.136 44.0332C120.084 41.813 117.704 40.0451 114.995 38.7294C112.287 37.4138 109.414 36.756 106.378 36.756C103.341 36.756 100.468 37.4138 97.7599 38.7294C95.0515 40.0451 92.6713 41.813 90.6195 44.0332C88.6497 46.2533 87.0493 48.8846 85.8182 51.9271C84.6692 54.8873 84.0946 58.0531 84.0946 61.4244C84.0946 64.7958 84.6692 68.0027 85.8182 71.0451C87.0493 74.0053 88.6497 76.5955 90.6195 78.8157C92.6713 81.0358 95.0515 82.8037 97.7599 84.1194C100.468 85.435 103.341 86.0928 106.378 86.0928C109.414 86.0928 112.287 85.435 114.995 84.1194C117.704 82.8037 120.084 81.0358 122.136 78.8157C124.188 76.5955 125.788 74.0053 126.937 71.0451C128.168 68.0027 128.784 64.7958 128.784 61.4244Z" fill="#545D6A"/>
<path d="M164.662 53.5305V89.2997C164.662 90.7798 163.924 91.5199 162.446 91.5199H159.984C158.425 91.5199 157.645 90.7798 157.645 89.2997V33.179C157.645 31.8634 158.261 31.2056 159.492 31.2056H162.939C163.349 31.2056 163.719 31.37 164.047 31.6989C164.457 31.9456 164.662 32.3979 164.662 33.0557L164.785 39.5928C166.591 36.9615 168.848 34.7825 171.557 33.0557C174.347 31.2467 177.63 30.3422 181.405 30.3422C186.084 30.3422 190.146 31.5345 193.593 33.9191C197.122 36.3037 199.708 39.3462 201.349 43.0464C203.155 39.1817 205.658 36.0981 208.859 33.7958C212.142 31.4111 216.081 30.2188 220.678 30.2188C224.453 30.2188 227.736 30.9589 230.526 32.439C233.317 33.8369 235.615 35.6459 237.421 37.866C239.308 40.0862 240.704 42.5942 241.606 45.3899C242.509 48.1035 242.961 50.817 242.961 53.5305V89.0531C242.961 90.6976 242.14 91.5199 240.498 91.5199H238.282C236.641 91.5199 235.82 90.7387 235.82 89.1764V53.4072C235.82 51.187 235.41 49.0902 234.589 47.1167C233.85 45.1432 232.783 43.4164 231.388 41.9363C230.075 40.4562 228.475 39.305 226.587 38.4828C224.699 37.6605 222.647 37.2493 220.431 37.2493C217.723 37.2493 215.343 37.7838 213.291 38.8528C211.239 39.8395 209.516 41.2374 208.12 43.0464C206.725 44.7732 205.658 46.8289 204.919 49.2135C204.181 51.5159 203.811 53.9416 203.811 56.4907V89.0531C203.811 90.6976 203.032 91.5199 201.472 91.5199H199.01C197.451 91.5199 196.671 90.7387 196.671 89.1764V53.1605C196.671 50.9403 196.261 48.8846 195.44 46.9934C194.619 45.0199 193.47 43.3342 191.993 41.9363C190.598 40.4562 188.956 39.305 187.068 38.4828C185.181 37.6605 183.129 37.2493 180.913 37.2493C178.697 37.2493 176.604 37.7016 174.634 38.6061C172.665 39.4284 170.941 40.5796 169.464 42.0597C167.986 43.5398 166.796 45.2666 165.893 47.2401C165.073 49.2135 164.662 51.3103 164.662 53.5305Z" fill="#545D6A"/>
<path d="M265.5 89.2997V33.4257C265.5 31.9456 266.28 31.2056 267.839 31.2056H270.301C271.861 31.2056 272.64 31.9456 272.64 33.4257V89.2997C272.64 90.7798 271.861 91.5199 270.301 91.5199H267.839C266.28 91.5199 265.5 90.7798 265.5 89.2997ZM263.284 13.5676C263.284 11.9231 263.818 10.5663 264.884 9.49735C266.033 8.34616 267.388 7.77056 268.947 7.77056C270.589 7.77056 271.943 8.34616 273.01 9.49735C274.159 10.5663 274.733 11.9231 274.733 13.5676C274.733 15.13 274.159 16.4867 273.01 17.6379C271.943 18.7069 270.589 19.2414 268.947 19.2414C267.388 19.2414 266.033 18.7069 264.884 17.6379C263.818 16.4867 263.284 15.13 263.284 13.5676Z" fill="#545D6A"/>
<path d="M303.434 54.6406V89.2997C303.434 90.0398 303.311 90.6154 303.065 91.0265C302.818 91.3554 302.326 91.5199 301.587 91.5199H298.386C297.566 91.5199 297.032 91.3554 296.786 91.0265C296.54 90.6154 296.417 90.0398 296.417 89.2997V32.809C296.417 31.7401 297.032 31.2056 298.263 31.2056H301.71C302.367 31.2056 302.777 31.4111 302.942 31.8223C303.188 32.1512 303.311 32.5212 303.311 32.9324L303.557 40.5796C305.609 37.5371 308.317 34.9881 311.682 32.9324C315.129 30.8767 318.946 29.8488 323.132 29.8488C326.661 29.8488 329.944 30.5066 332.981 31.8223C336.017 33.1379 338.644 34.9881 340.86 37.3727C343.076 39.6751 344.799 42.4708 346.03 45.76C347.343 49.0491 348 52.626 348 56.4907V89.0531C348 90.6976 347.343 91.5199 346.03 91.5199H342.829C341.927 91.5199 341.352 91.3554 341.106 91.0265C340.942 90.6154 340.86 89.9987 340.86 89.1764V55.134C340.86 52.5849 340.367 50.2003 339.382 47.9801C338.397 45.76 337.043 43.8276 335.32 42.183C333.678 40.5385 331.749 39.2639 329.533 38.3594C327.317 37.3727 324.937 36.8793 322.393 36.8793C319.931 36.8793 317.551 37.3316 315.253 38.2361C312.955 39.1406 310.944 40.4151 309.22 42.0597C307.497 43.622 306.101 45.5133 305.034 47.7334C303.968 49.8714 303.434 52.1737 303.434 54.6406Z" fill="#545D6A"/>
<path d="M572.571 93.1413C577.856 93.1413 582.141 88.8561 582.141 83.5707C582.141 78.2848 577.856 74 572.571 74C567.285 74 563 78.2848 563 83.5707C563 88.8561 567.285 93.1413 572.571 93.1413Z" fill="#42C7F3"/>
</svg>
